<svg viewBox="0 0 27 44" fill="none" xmlns="http://www.w3.org/2000/svg">
<g clip-path="url(#clip0_428_671)">
<path d="M18.8454 13.48C15.841 13.7084 13.5585 14.2606 10.5542 14.47L11.276 12.7565C23.0593 8.60589 20.8158 7.57776 25.5369 0.228565C25.8295 -0.22838 26.4733 0.0762499 26.3367 0.590313C23.9762 8.9486 22.7471 8.18702 27 18.9252L26.3172 20.5817L21.3425 14.451L18.8649 13.499L18.8454 13.48Z" fill="white"/>
<path d="M1.91174 24.0467C2.9457 28.3116 -0.52684 50.759 7.15958 37.222C11.5685 29.5491 14.9045 21.1337 18.3771 12.9849L21.9667 14.4509C17.6357 23.704 13.8315 33.338 7.4327 41.5249C6.28169 42.8005 4.54541 44.5521 2.51651 43.8287C-2.08753 42.077 0.780241 27.8356 1.91174 24.0467Z" fill="white"/>
</g>
<defs>
<clipPath id="clip0_428_671">
<rect width="100%" height="100%" fill="white"/>
</clipPath>
</defs>
</svg>
