<svg width="383" height="80" viewBox="0 0 383 80" fill="none" xmlns="http://www.w3.org/2000/svg">
<path d="M33.3529 43C32.6057 43 32 43.6057 32 44.3529V45.0485L32.0017 45.0823C32.1425 47.8981 34.2669 50.718 37.8815 50.996L37.9333 51H38.6471C39.3943 51 40 50.3943 40 49.6471C40 48.8998 39.3943 48.2941 38.6471 48.2941H38.0406C35.9629 48.1118 34.7986 46.5502 34.7059 44.9781V44.3529C34.7059 43.6057 34.1002 43 33.3529 43Z" fill="white"/>
<path fill-rule="evenodd" clip-rule="evenodd" d="M37.0633 21.1386C30.0704 21.4465 24.6643 27.1867 24.3133 34.1775C24.1372 37.6839 23.9999 40.819 23.9999 43.7333C23.9999 46.4516 24.1194 49.1732 24.2783 52.3013C24.6318 59.2575 30.0289 64.946 36.987 65.2579C38.0408 65.3052 39.0621 65.3333 39.9999 65.3333C40.9672 65.3333 42.023 65.3034 43.1118 65.2534C50.0247 64.9363 55.4017 59.3149 55.7425 52.4031C55.8909 49.394 55.9999 46.7049 55.9999 43.7333C55.9999 40.4143 55.8786 37.3525 55.7177 34.0451C55.3806 27.1121 49.9996 21.4591 43.0655 21.1444C41.9931 21.0957 40.9535 21.0666 39.9999 21.0666C39.0847 21.0666 38.09 21.0934 37.0633 21.1386ZM28.2021 34.9793C28.4672 29.6509 32.5131 25.2987 37.7246 25.0585C38.5205 25.0219 39.2919 25 40 25C40.7433 25 41.5565 25.0241 42.3945 25.0641C47.5514 25.3105 51.5708 29.5809 51.8203 34.8547C51.844 35.3573 51.8664 35.7858 51.8866 36.1741C51.9551 37.4905 52 38.353 52 40.1412C52 41.9053 51.951 42.9092 51.8773 44.4191C51.8654 44.6617 51.8529 44.9176 51.8399 45.1915C51.5902 50.4449 47.575 54.6853 42.438 54.9338C41.5847 54.9751 40.7562 55 40 55C39.2712 55 38.4752 54.9768 37.6546 54.9382C32.4751 54.6944 28.4379 50.3907 28.1746 45.0948C28.1574 44.7491 28.1411 44.4325 28.1257 44.136L28.1256 44.1337C28.0503 42.676 28 41.7033 28 40.1412C28 38.6408 28.0464 37.8167 28.1168 36.5655C28.1424 36.1109 28.1712 35.5996 28.2021 34.9793Z" fill="white"/>
<path fill-rule="evenodd" clip-rule="evenodd" d="M22.8346 5H57.1654C64.7004 5 66.6478 5.78184 68.5295 6.78822C70.561 7.87464 72.1254 9.43902 73.2118 11.4705C74.2182 13.3522 75 15.2996 75 22.8346V24.0213C75 24.567 74.5625 25.0112 74.0174 25.0343C73.8496 25.0414 73.6799 25.0495 73.509 25.0585C68.949 25.2987 65.4088 29.6509 65.1768 34.9793C65.15 35.5957 65.1249 36.1051 65.1026 36.5575L65.1023 36.563L65.1022 36.5655C65.0406 37.8167 65 38.6408 65 40.1412C65 41.7033 65.044 42.6764 65.1099 44.1341C65.1234 44.4312 65.1377 44.7483 65.1528 45.0948C65.3831 50.3907 68.9158 54.6944 73.4478 54.9382C73.6394 54.9485 73.8295 54.9577 74.0174 54.9657C74.5625 54.9888 75 55.433 75 55.9787V57.1654C75 64.7004 74.2182 66.6478 73.2118 68.5295C72.1254 70.561 70.561 72.1254 68.5295 73.2118C66.6478 74.2182 64.7004 75 57.1654 75H22.8346C15.2996 75 13.3522 74.2182 11.4705 73.2118C9.43903 72.1254 7.87464 70.561 6.78822 68.5295C5.78184 66.6478 5 64.7004 5 57.1654V55.9787C5 55.433 5.43745 54.9888 5.9826 54.9657C6.19692 54.9566 6.41416 54.9459 6.63326 54.9338C11.1281 54.6853 14.6414 50.4449 14.8599 45.1915C14.8711 44.9219 14.8819 44.6699 14.8921 44.4308L14.8926 44.4187C14.9571 42.9088 15 41.9053 15 40.1412C15 38.353 14.9607 37.4897 14.9007 36.1733C14.883 35.785 14.8635 35.3573 14.8427 34.8547C14.6245 29.5809 11.1075 25.3105 6.59518 25.0641C6.38898 25.0529 6.1845 25.0429 5.98262 25.0343C5.43747 25.0112 5 24.567 5 24.0213V22.8346C5 15.2996 5.78184 13.3522 6.78822 11.4705C7.87464 9.43903 9.43903 7.87464 11.4705 6.78822C13.3522 5.78184 15.2996 5 22.8346 5ZM36.911 17.6752C28.0083 18.0671 21.2855 25.3526 20.8511 34.0036C20.6751 37.5098 20.5334 40.7227 20.5334 43.7332C20.5334 46.5469 20.6571 49.3447 20.8163 52.4771C21.2547 61.1063 27.9801 68.3241 36.832 68.721C37.9213 68.7698 38.9965 68.7998 40.0001 68.7998C41.0349 68.7998 42.1461 68.7679 43.2708 68.7163C52.0583 68.3132 58.7808 61.1796 59.2051 52.5737C59.3543 49.5484 59.4668 46.7915 59.4668 43.7332C59.4668 40.3292 59.3422 37.201 59.1805 33.8766C58.7613 25.2568 52.0418 18.0814 43.2229 17.6812C42.1147 17.6309 41.0203 17.5999 40.0001 17.5999C39.0206 17.5999 37.9731 17.6284 36.911 17.6752Z" fill="white"/>
<path d="M311.224 19.83C309.719 21.3156 307.465 21.9587 304.499 21.9587C301.541 21.9587 299.226 21.3156 297.765 19.83C296.26 18.3988 295.573 16.1976 295.573 13.3623V13H300.388V13.3623C300.388 14.8841 300.723 15.8624 301.286 16.3969L301.304 16.415C301.876 17.0038 302.932 17.2937 304.49 17.2937C306.048 17.2937 307.052 17.0038 307.624 16.415L307.641 16.3969C308.222 15.8624 308.601 14.8751 308.601 13.3623V13H313.416V13.3623C313.416 16.2067 312.668 18.4078 311.224 19.83Z" fill="white"/>
<path fill-rule="evenodd" clip-rule="evenodd" d="M279.773 48.4453C280.239 47.8022 280.556 46.996 280.776 45.9271L280.847 45.6282H286.445L286.383 46.0448C286.102 47.8746 285.582 49.4417 284.755 50.7099C283.945 52.0234 282.95 53.056 281.718 53.835C280.494 54.614 279.104 55.1485 277.554 55.5018C275.943 55.855 274.227 55.9728 272.352 55.9728C270.019 55.9728 267.96 55.7373 266.12 55.2028C264.271 54.7318 262.643 53.835 261.358 52.6303C260.072 51.4164 259.087 49.795 258.391 47.784C257.696 45.8184 257.353 43.3455 257.353 40.4196C257.353 37.4303 257.687 34.894 258.382 32.874C259.069 30.863 260.055 29.1872 261.34 27.9191L261.349 27.91C262.625 26.7143 264.201 25.8175 266.049 25.2831H266.058C267.889 24.8121 269.949 24.5222 272.229 24.5222C276.568 24.5222 280.037 25.6454 282.598 27.9191C285.116 30.2199 286.374 33.6892 286.374 38.2818V42.5302H262.995C263.03 44.1969 263.294 45.5829 263.699 46.6155C264.13 47.7206 264.773 48.5993 265.565 49.2515C266.358 49.9128 267.317 50.3476 268.453 50.574C269.614 50.8005 270.891 50.9182 272.334 50.9182C273.452 50.9182 274.447 50.8639 275.433 50.6918H275.451C276.357 50.574 277.167 50.3023 277.924 49.9128L277.933 49.9037H277.942C278.663 49.5867 279.236 49.1066 279.773 48.4453ZM265.785 31.2163C264.993 31.8142 264.351 32.6385 263.866 33.7436C263.417 34.7672 263.145 36.0535 263.057 37.7021H280.644C280.618 36.1622 280.398 34.9302 280.001 33.9067C279.57 32.7925 279.033 31.9772 278.303 31.325C277.563 30.7181 276.709 30.2833 275.688 30.0025C274.641 29.776 273.479 29.6039 272.22 29.6039C270.891 29.6039 269.729 29.7217 268.629 29.9481C267.555 30.1656 266.586 30.6094 265.785 31.2163Z" fill="white"/>
<path d="M326.056 45.3202C326.162 44.1154 326.276 42.5664 326.276 40.6098V25.4099H349.85V55.1213H344.189V30.4826H331.769V41.3073C331.769 45.9724 331.091 49.4689 329.806 51.6972C328.486 54.0343 326.329 55.1213 323.415 55.1213H322.166V49.7588H322.518C323.222 49.7588 323.776 49.641 324.208 49.3964L324.225 49.3874L324.234 49.3783C324.639 49.1971 325.044 48.7533 325.361 48.1011C325.669 47.4579 325.889 46.5793 326.056 45.3202Z" fill="white"/>
<path d="M248.26 45.2387C248.039 46.4163 247.661 47.3493 247.194 48.0558C246.657 48.8258 246.077 49.3693 245.39 49.8041C244.642 50.2389 243.841 50.5197 242.916 50.6827C241.931 50.8549 240.936 50.9092 239.818 50.9092C238.313 50.9092 236.992 50.7914 235.839 50.5106C234.651 50.2298 233.7 49.7407 232.97 48.9888L232.961 48.9798C232.169 48.2189 231.579 47.1772 231.139 45.8275C230.707 44.4868 230.478 42.6752 230.478 40.4377C230.478 38.146 230.698 36.3253 231.139 34.8669C231.579 33.4538 232.169 32.3577 232.961 31.6059L232.97 31.5968C233.7 30.845 234.651 30.3467 235.839 30.075C236.992 29.7942 238.321 29.6221 239.818 29.6221C240.857 29.6221 241.851 29.7308 242.749 29.8485C243.612 30.0206 244.413 30.2924 245.161 30.7272C245.848 31.162 246.437 31.7146 246.974 32.4302C247.45 33.1367 247.828 34.0154 248.039 35.1296L248.092 35.4194H253.761L253.682 34.9937C253.339 33.0552 252.819 31.3794 252.001 30.0478C251.191 28.7344 250.196 27.6564 249.034 26.814L249.025 26.8049C247.863 26.0259 246.464 25.4281 244.915 25.0748C243.312 24.7215 241.649 24.5494 239.827 24.5494C237.485 24.5494 235.434 24.8393 233.603 25.3103H233.594C231.746 25.8447 230.118 26.7415 228.832 27.9372L228.824 27.9463C227.538 29.2145 226.552 30.8902 225.866 32.9012C225.17 34.9212 224.836 37.4576 224.836 40.4468C224.836 43.3727 225.179 45.8456 225.866 47.8112C226.552 49.8222 227.547 51.4436 228.832 52.6575C230.118 53.8622 231.746 54.759 233.594 55.23C235.434 55.7645 237.494 56 239.827 56C241.71 56 243.427 55.8279 245.029 55.4746C246.587 55.1213 247.978 54.5235 249.201 53.6811C250.434 52.8386 251.42 51.7607 252.238 50.3838C253.057 49.0522 253.576 47.3764 253.867 45.3745L253.928 44.9579H248.33L248.26 45.2387Z" fill="white"/>
<path d="M377.331 45.2387L377.384 44.9397V44.9579H383L382.938 45.3745C382.648 47.3764 382.129 49.0522 381.31 50.3838C380.491 51.7607 379.505 52.8386 378.273 53.6811C377.049 54.5235 375.659 55.1213 374.101 55.4746C372.499 55.8279 370.782 56 368.898 56C366.566 56 364.506 55.7645 362.666 55.23C360.818 54.759 359.189 53.8622 357.904 52.6575C356.619 51.4436 355.633 49.8222 354.938 47.8112C354.251 45.8456 353.908 43.3727 353.908 40.4468C353.908 37.4576 354.242 34.9212 354.938 32.9012C355.624 30.8902 356.61 29.2145 357.895 27.9463L357.904 27.9372C359.189 26.7415 360.818 25.8447 362.666 25.3103H362.675C364.506 24.8393 366.557 24.5494 368.898 24.5494C370.72 24.5494 372.384 24.7215 373.986 25.0748C375.544 25.4281 376.935 26.0259 378.097 26.8049L378.106 26.814C379.268 27.6564 380.262 28.7344 381.072 30.0478C381.891 31.3794 382.41 33.0552 382.754 34.9937L382.833 35.4194H377.164L377.111 35.1296C376.9 34.0154 376.521 33.1367 376.046 32.4302C375.509 31.7146 374.919 31.162 374.233 30.7272C373.484 30.2924 372.683 30.0206 371.821 29.8485C370.923 29.7308 369.928 29.6221 368.89 29.6221C367.393 29.6221 366.064 29.7942 364.911 30.075C363.722 30.3467 362.772 30.845 362.041 31.5968L362.032 31.6059C361.24 32.3577 360.65 33.4538 360.21 34.8669C359.77 36.3253 359.55 38.146 359.55 40.4377C359.55 42.6752 359.779 44.4868 360.21 45.8275C360.65 47.1772 361.24 48.2189 362.032 48.9798L362.041 48.9888C362.772 49.7407 363.722 50.2298 364.911 50.5106C366.064 50.7914 367.384 50.9092 368.89 50.9092C370.007 50.9092 371.002 50.8549 371.988 50.6827C372.912 50.5197 373.713 50.2389 374.462 49.8041C375.148 49.3693 375.729 48.8258 376.266 48.0558C376.733 47.3493 377.111 46.4163 377.331 45.2387Z" fill="white"/>
<path fill-rule="evenodd" clip-rule="evenodd" d="M216.447 27.0404C214.114 25.3556 210.875 24.5403 206.835 24.5403C204.898 24.5403 203.129 24.7124 201.632 25.0748C200.074 25.4281 198.736 26.0259 197.627 26.814L197.618 26.823C196.5 27.6745 195.62 28.7525 194.925 30.075C194.221 31.4066 193.763 33.0733 193.534 35.0208L193.49 35.4285H198.983L199.027 35.1205C199.194 33.9882 199.458 33.1095 199.881 32.412L199.898 32.3939C200.268 31.6874 200.734 31.1529 201.359 30.7272C201.984 30.3014 202.724 30.0206 203.639 29.8576C204.528 29.7398 205.637 29.6311 206.852 29.6311C209.643 29.6311 211.518 30.1474 212.671 31.008C213.789 31.8414 214.387 33.2726 214.387 35.4104V37.4575C213.732 37.4495 213.133 37.406 212.564 37.3646L212.345 37.3488H212.31C211.597 37.3488 210.875 37.2945 210.144 37.2311H210.109C209.731 37.2311 209.361 37.222 208.965 37.2039H208.93C208.525 37.1858 208.093 37.1767 207.636 37.1767C207.213 37.1767 206.782 37.1677 206.315 37.1496H206.236C205.743 37.1314 205.215 37.1224 204.652 37.1224C202.204 37.1224 200.189 37.4122 198.622 37.9557H198.613C197.064 38.5445 195.831 39.2602 194.942 40.1841C194.001 41.099 193.402 42.1317 193.05 43.2277C192.698 44.3147 192.583 45.4017 192.583 46.4163C192.583 48.1192 192.812 49.632 193.402 50.8639C193.93 52.0687 194.696 53.1013 195.708 53.835C196.659 54.6231 197.83 55.1666 199.159 55.5199C200.497 55.8822 201.94 56 203.525 56C205.928 56 208.129 55.5833 210.1 54.6322C212.011 53.7082 213.445 52.2679 214.387 50.3385V55.1304H220.047V35.3922C220.038 31.5968 218.824 28.7434 216.447 27.0404ZM214.378 44.5955C214.273 45.9452 213.938 47.0322 213.428 47.8294C212.891 48.6537 212.204 49.3059 211.368 49.7316C210.496 50.1755 209.519 50.5106 208.428 50.6827C207.319 50.8548 206.271 50.9092 205.153 50.9092C202.689 50.9092 200.911 50.565 199.81 49.9128C198.78 49.3059 198.243 48.1826 198.243 46.3438C198.243 45.7278 198.296 45.139 198.499 44.6227L198.516 44.5865C198.657 44.0883 199 43.5719 199.573 43.1552L199.59 43.1371C200.092 42.7295 200.919 42.3943 202.037 42.1045C203.138 41.878 204.687 41.7059 206.579 41.7059C207.116 41.7059 207.671 41.715 208.261 41.7331H208.34C208.956 41.7512 209.607 41.7603 210.285 41.7603C211.544 41.8146 212.935 41.869 214.387 41.9233V44.5955H214.378Z" fill="white"/>
<path fill-rule="evenodd" clip-rule="evenodd" d="M150.445 40.1116C152.479 40.3743 154.134 40.954 155.34 41.9595C156.563 43.0918 157.206 44.7676 157.197 47.0503C157.197 48.2098 156.959 49.2334 156.607 50.1936C156.246 51.1809 155.648 52.0415 154.82 52.7752C154.002 53.4998 153.007 54.1068 151.836 54.5234H151.827C150.595 54.9492 149.204 55.1213 147.602 55.1213H131.141V25.4099H146.37C148.201 25.4099 149.768 25.6454 151.044 26.0621H151.062C152.329 26.5331 153.333 27.0766 154.16 27.8104C154.979 28.5441 155.586 29.3412 155.947 30.2742C156.299 31.1801 156.475 32.095 156.475 33.0733C156.475 35.2201 155.894 36.9502 154.794 38.0825L154.785 38.0916C153.711 39.1424 152.268 39.7946 150.445 40.012V40.1116ZM145.983 30.4826H136.81V37.693H147.004C148.535 37.693 149.53 37.3035 150.049 36.6241C150.569 35.8723 150.877 35.0208 150.877 33.9429C150.877 33.4084 150.78 32.9283 150.666 32.4664C150.578 32.1131 150.357 31.8232 150.032 31.4881C149.697 31.1982 149.204 30.9808 148.535 30.7543C147.893 30.5913 147.021 30.4826 145.983 30.4826ZM146.484 50.0486C148.086 50.0486 149.319 49.7678 150.261 49.2243C151.132 48.7261 151.599 47.8203 151.599 46.4072C151.599 45.2658 151.282 44.369 150.666 43.6262C150.093 42.9469 148.887 42.5392 146.933 42.5392H136.81V50.0486H146.484Z" fill="white"/>
<path d="M167.294 45.4017V25.4099H161.625V55.1213H164.952L182.364 35.3469V55.1213H188.024V25.4099H184.696L167.294 45.4017Z" fill="white"/>
<path fill-rule="evenodd" clip-rule="evenodd" d="M112.269 24.5403C116.309 24.5403 119.549 25.3556 121.881 27.0404C124.249 28.7434 125.464 31.5968 125.464 35.3922V55.1213H119.804V50.3295C118.862 52.2589 117.436 53.6992 115.517 54.6231C113.545 55.5742 111.345 55.9909 108.942 55.9909C107.357 55.9909 105.913 55.8732 104.576 55.5108C103.246 55.1576 102.076 54.6141 101.125 53.826C100.113 53.0923 99.3468 52.0596 98.8186 50.8548C98.2289 49.6229 98 48.1102 98 46.4072C98 45.3927 98.1144 44.3057 98.4665 43.2187C98.8186 42.1226 99.4172 41.0899 100.359 40.175C101.257 39.2602 102.489 38.5445 104.021 37.9557H104.03C105.597 37.4122 107.612 37.1224 110.059 37.1224C110.623 37.1224 111.151 37.1314 111.644 37.1496H111.723C112.19 37.1677 112.621 37.1767 113.044 37.1767C113.501 37.1767 113.933 37.1858 114.338 37.2039H114.373C114.769 37.222 115.139 37.2311 115.517 37.2311H115.552C116.292 37.2945 117.014 37.3488 117.727 37.3488H117.762L117.98 37.3646C118.549 37.406 119.149 37.4495 119.804 37.4575V35.3922C119.804 33.2545 119.205 31.8232 118.087 30.9899C116.934 30.1293 115.059 29.613 112.269 29.613C111.054 29.613 109.945 29.7217 109.056 29.8395C108.132 30.0025 107.401 30.2833 106.776 30.7091C106.151 31.1348 105.685 31.6693 105.315 32.3758L105.306 32.3849V32.403C104.892 33.1005 104.62 33.9791 104.452 35.1114L104.408 35.4194H98.9155L98.9595 35.0118C99.1883 33.0642 99.6461 31.3975 100.35 30.0659C101.046 28.7434 101.926 27.6655 103.044 26.814L103.053 26.8049C104.162 26.0168 105.5 25.4281 107.067 25.0748C108.563 24.7124 110.332 24.5403 112.269 24.5403ZM118.853 47.8294C119.364 47.0322 119.689 45.9452 119.804 44.5955H119.813V41.9233C118.36 41.869 116.961 41.8146 115.711 41.7603C115.033 41.7603 114.382 41.7512 113.765 41.7331H113.686C113.096 41.715 112.542 41.7059 112.005 41.7059C110.112 41.7059 108.563 41.878 107.463 42.1045C106.345 42.3943 105.517 42.7295 105.016 43.1371L104.998 43.1552C104.426 43.5719 104.083 44.0883 103.942 44.5865L103.924 44.6227C103.722 45.139 103.669 45.7278 103.669 46.3438C103.669 48.1826 104.206 49.3059 105.236 49.9128C106.336 50.565 108.114 50.9092 110.579 50.9092C111.697 50.9092 112.744 50.8548 113.853 50.6827C114.945 50.5106 115.922 50.1755 116.793 49.7316C117.63 49.3059 118.325 48.6537 118.853 47.8294Z" fill="white"/>
<path d="M296.964 45.4017V25.4099H291.304V55.1213H294.623L312.034 35.3469V55.1213H317.694V25.4099H314.367L296.964 45.4017Z" fill="white"/>
</svg>
