<svg width="20" height="20" viewBox="0 0 24 24" fill="currentColor" xmlns="http://www.w3.org/2000/svg" aria-hidden="true" data-test-id="icon" style="display: inline-block;"><path fill-rule="evenodd" clip-rule="evenodd" d="M14.002 3.223a9.03 9.03 0 0 0-4.003 0A3 3 0 0 1 5.402 5.88a8.99 8.99 0 0 0-2.004 3.466 3 3 0 0 1 0 5.31 8.99 8.99 0 0 0 2.004 3.466A3 3 0 0 1 10 20.777a9.03 9.03 0 0 0 4.003 0A3 3 0 0 1 18.6 18.12a8.99 8.99 0 0 0 2.003-3.466 3 3 0 0 1 0-5.31A8.991 8.991 0 0 0 18.6 5.879a3 3 0 0 1-4.597-2.656ZM12 15a3 3 0 1 0 0-6 3 3 0 0 0 0 6Z"></path></svg>