<svg width="16" height="16" fill="#3b82f6" xmlns="http://www.w3.org/2000/svg" aria-hidden="true" data-test-id="icon" style="display:inline-block"><path d="M12.506 3.994a3.141 3.141 0 0 1-.273-.16 3.844 3.844 0 0 1-.7-.602 3.355 3.355 0 0 1-.789-1.645h.003c-.06-.357-.035-.587-.031-.587H8.338v9.297c0 .125 0 .248-.005.37 0 .016-.002.03-.003.046l-.001.02v.006a2.057 2.057 0 0 1-.308.938c-.177.283-.42.517-.708.682-.3.173-.639.263-.984.263-1.108 0-2.006-.914-2.006-2.042 0-1.128.898-2.041 2.006-2.041.21 0 .418.033.618.098L6.95 6.19a4.37 4.37 0 0 0-3.404 1.007c-.41.36-.754.79-1.018 1.27-.1.175-.48.878-.525 2.02-.029.647.163 1.318.255 1.595v.006a4.7 4.7 0 0 0 .646 1.19c.293.378.64.709 1.03.983v-.006l.005.006c1.152.791 2.428.74 2.428.74.22-.01.961 0 1.801-.403.933-.447 1.463-1.112 1.463-1.112.34-.398.609-.85.798-1.34a5.067 5.067 0 0 0 .287-1.532V5.681c.029.017.413.274.413.274s.553.359 1.417.593c.62.166 1.454.2 1.454.2V4.363c-.293.032-.886-.061-1.494-.368z"></path></svg>