<svg width="16" height="16" viewBox="0 0 16 16" fill="#3b82f6" xmlns="http://www.w3.org/2000/svg" aria-hidden="true" data-test-id="icon" style="display:inline-block"><path d="M7.69 4.671c0-.084.072-.152.161-.152.934.007 1.724.301 2.358.888.639.59.955 1.395.963 2.394 0 .084-.07.153-.16.154a.157.157 0 0 1-.162-.152c-.008-.936-.301-1.656-.866-2.178-.57-.527-1.278-.795-2.135-.8a.157.157 0 0 1-.16-.154Z"></path><path d="M7.973 5.453a.158.158 0 0 1 .173-.141c.675.047 1.22.266 1.616.676.392.406.578.911.564 1.504a.157.157 0 0 1-.164.15.156.156 0 0 1-.157-.157c.012-.522-.15-.949-.48-1.291-.33-.34-.79-.535-1.403-.578a.155.155 0 0 1-.149-.163Z"></path><path d="M8.386 6.13a.158.158 0 0 0-.169.145.156.156 0 0 0 .153.16c.277.014.466.091.59.213.125.122.205.31.22.586.004.084.08.149.168.145a.156.156 0 0 0 .153-.16c-.017-.323-.113-.591-.31-.784-.196-.193-.472-.288-.805-.304ZM8.41 9.27s.226.019.348-.124l.237-.283c.115-.14.391-.23.662-.087.203.11.4.229.59.357.145.101.41.309.51.387l.039.03c.175.14.216.346.096.563v.005a2.38 2.38 0 0 1-.495.577l-.002.002-.002.001a.996.996 0 0 1-.502.23.703.703 0 0 1-.287-.027l-.005-.007c-.253-.067-.676-.237-1.38-.605a8.268 8.268 0 0 1-1.16-.726 5.987 5.987 0 0 1-.52-.439l-.053-.05-.018-.017a5.875 5.875 0 0 1-.462-.494 7.779 7.779 0 0 1-.766-1.1c-.388-.667-.567-1.068-.639-1.308l-.007-.005a.604.604 0 0 1-.029-.272c.02-.156.102-.314.243-.476L4.81 5.4l.002-.003c.175-.186.38-.344.608-.468h.003l.002-.001c.23-.113.447-.075.594.09 0 0 .308.35.44.52.135.181.26.368.376.56.151.257.057.52-.091.628l-.3.226c-.15.115-.13.33-.13.33S6.756 8.87 8.41 9.27Z"></path><path fill-rule="evenodd" clip-rule="evenodd" d="M13.033 3.268c-.341-.298-1.718-1.246-4.784-1.259 0 0-3.616-.206-5.378 1.327-.981.93-1.327 2.292-1.363 3.98-.036 1.69-.083 4.854 3.133 5.712h.003l-.002 1.309s-.02.53.347.638c.372.11.615-.153.932-.495.063-.068.13-.14.2-.211.233-.239.555-.589.798-.856 2.2.175 3.89-.226 4.083-.285.04-.013.096-.026.165-.043.71-.171 2.829-.682 3.2-3.563.423-3.261-.203-5.324-1.334-6.254ZM6.83 12.23l-.06.07a189.041 189.041 0 0 1-.687.775c-.228.255-.469.52-.671.739l.009-1.633.001-.31-.3-.08c-1.17-.307-1.718-1.006-1.99-1.799-.282-.824-.264-1.748-.246-2.48l.003-.144c.03-1.373.303-2.389 1.008-3.054.65-.554 1.684-.815 2.62-.925a10.815 10.815 0 0 1 1.62-.064l.024.001h.006l.011.001h.012c2.525.01 3.667.732 3.865.903l.01.007c.383.312.712.875.897 1.725.185.846.22 1.944.046 3.274-.142 1.088-.589 1.678-1.035 2.017-.459.349-.953.461-1.252.528l-.014.003c-.058.012-.125.027-.178.043-.119.037-1.557.38-3.373.267l-.196-.012-.13.148Z"></path></svg>