<svg width="16" height="16" fill="#3b82f6" xmlns="http://www.w3.org/2000/svg" aria-hidden="true" data-test-id="icon" style="display:inline-block"><path fill-rule="evenodd" clip-rule="evenodd" d="M2.844 2.844C2 3.687 2 5.044 2 7.76v.48c0 2.715 0 4.073.844 4.916.843.844 2.2.844 4.916.844h.48c2.715 0 4.073 0 4.916-.844.844-.843.844-2.2.844-4.916v-.48c0-2.715 0-4.073-.844-4.916C12.313 2 10.956 2 8.24 2h-.48c-2.715 0-4.073 0-4.916.844zM4.025 5.65c.065 3.12 1.625 4.995 4.36 4.995h.155V8.86c1.005.1 1.765.835 2.07 1.785h1.42c-.39-1.42-1.415-2.205-2.055-2.505.64-.37 1.54-1.27 1.755-2.49h-1.29c-.28.99-1.11 1.89-1.9 1.975V5.65H7.25v3.46c-.8-.2-1.81-1.17-1.855-3.46h-1.37z"></path></svg>