<svg width="16" height="16" fill="#3b82f6" xmlns="http://www.w3.org/2000/svg" aria-hidden="true" data-test-id="icon" style="display:inline-block"><path fill-rule="evenodd" clip-rule="evenodd" d="M14.252 2.829c.69.18 1.23.712 1.415 1.389h-.002C16 5.443 16 8 16 8s0 2.557-.335 3.782a1.986 1.986 0 0 1-1.414 1.39C13.004 13.5 8 13.5 8 13.5s-5.004 0-6.25-.329a1.986 1.986 0 0 1-1.415-1.389C0 10.557 0 8 0 8s0-2.557.335-3.782a1.986 1.986 0 0 1 1.414-1.39C2.996 2.5 8 2.5 8 2.5s5.004 0 6.252.329zM10.558 8 6.4 5.643v4.714L10.558 8z"></path></svg>