<svg width="16" height="16" fill="#3b82f6" xmlns="http://www.w3.org/2000/svg" aria-hidden="true" data-test-id="icon" style="display:inline-block"><path d="M9.157 9.157C8.214 10.13 8.15 11.343 8.064 14c2.477 0 4.187-.009 5.07-.866.857-.883.866-2.674.866-5.07-2.657.086-3.87.15-4.843 1.093zM7.936 14c-2.477 0-4.187-.009-5.07-.866C2.009 12.251 2 10.46 2 8.064c2.657.086 3.87.15 4.843 1.093.943.973 1.007 2.186 1.093 4.843zM6.843 6.843C5.87 7.786 4.657 7.85 2 7.936c0-2.396.009-4.187.866-5.07C3.749 2.009 5.463 2 7.936 2c-.086 2.657-.15 3.87-1.093 4.843zM8.064 2c.082 2.657.15 3.87 1.093 4.843.973.943 2.186 1.007 4.843 1.093 0-2.396-.009-4.187-.866-5.07C12.251 2.009 10.541 2 8.064 2z"></path></svg>